# xmcd
#
# Track frame offsets:
#	150
#	11940
#	24152
#	33664
#	45458
#	58759
#	69478
#	80230
#	90064
#	102021
#	121958
#	136347
#	147473
#	159489
#	176296
#	191503
#
# Disc length: 2745 seconds
#
# Revision: 1
# Processed by: cddbd v1.5.2PL0 Copyright (c) Steve Scherf et al.
# Submitted via: audiograbber 1.83.01
#
DISCID=ce0ab710
DTITLE=Bruce Hoffman - Tribute to Charles Pa Ingalls
DYEAR=2006
DGENRE=Fiddle
TTITLE0=Arkansas Traveler
TTITLE1=Ben Bolt
TTITLE2=Buffalo Gals
TTITLE3=The Campbells are Coming
TTITLE4=Barbary Allen
TTITLE5=Captain Jinks
TTITLE6=Old Dan Tucker
TTITLE7=Irish Washerwoman
TTITLE8=Keep The Horseshoe Over The Door
TTITLE9=The Gypsy's Warning - Pam Tillis
TTITLE10=Lily Dale
TTITLE11=Highland Mary
TTITLE12=Oh Susanna
TTITLE13=Sweet Bye and Bye
TTITLE14=Home Sweet Home, Buck Trent
TTITLE15=When Johnny Comes Marching Home
EXTD=
EXTT0=
EXTT1=
EXTT2=
EXTT3=
EXTT4=
EXTT5=
EXTT6=
EXTT7=
EXTT8=
EXTT9=
EXTT10=
EXTT11=
EXTT12=
EXTT13=
EXTT14=
EXTT15=
PLAYORDER=
